# xmcd CD database file
#
# Track frame offsets:
#	150
#	12488
#	24013
#	34820
#	45988
#	58743
#	71548
#	83480
#	94878
#	109045
#	121680
#	134215
#	149973
#	162478
#	176393
#	193735
#	207150
#	221850
#
# Disc length: 3128 seconds
#
# Revision: 2
# Processed by: cddbd v1.4PL0 Copyright (c) Steve Scherf et al.
# Submitted via: CDex 1.50Beta7
#
DISCID=060c3612
DTITLE=Otis Redding - Super Selection
DYEAR=1900
DGENRE=Soul
TTITLE0=(Sittin' On) The Dock Of The Bay
TTITLE1=These Arms Of Mine
TTITLE2=Pain In My Heart
TTITLE3=That's How Strong My Love Is
TTITLE4=Keep Your Arms Around Me
TTITLE5=You Don't Miss Your Water
TTITLE6=I Can't Turn You Loose
TTITLE7=Security
TTITLE8=My Lover's Prayer
TTITLE9=Come To Me
TTITLE10=Satisfaction
TTITLE11=Rock Me Baby
TTITLE12=Ton Of Joy
TTITLE13=Amen
TTITLE14=Try A Little Tenderness
TTITLE15=Just One More Day
TTITLE16=I've Been Loving You Too Long
TTITLE17=For Your Precious Love
EXTD=
EXTT0=Sittin' in the mornin' sun\nI'll be sittin when the evening come\nWatchin' the ships roll in\nAnd then I'll watch 'em roll away again, yeah\nI'm sittin' on the dock of the bay\nWatchin' the tide roll away\nOoh I'm just sittin' on the dock of the ba
EXTT0=y\nWastin' time\n\nI left my home in Georgia\nHeaded for the 'Frisco Bay\n'Cause I've had nothin' to live for\nIt llk like nothing's gonna come my way\nSo I'm just gonna sit on the dock of the bay\nWatchin' the tide roll away\nOoh I'm sittin' on th
EXTT0=e dock of the bay\nWastin' time\n\nLook like nothing's gonna change\nEverything still remains the same \nI can't do what tem people tell me to do\nSo I guess I'll remain the same\n\nJust sittin' here restin' my bones\nAnd this loneliness won't leav
EXTT0=e me alone\nListen, two thousand miles I roam\nJust to make this dock my home\nNow, I'm just gonna sit at the dock of the bay\nWatchin' the tide roll away\nOoh wee I'm sittin' on the dock of the bay\nWastin' time
EXTT1=
EXTT2=
EXTT3=
EXTT4=
EXTT5=
EXTT6=
EXTT7=
EXTT8=
EXTT9=
EXTT10=
EXTT11=
EXTT12=
EXTT13=
EXTT14=
EXTT15=
EXTT16=I've been loving too long to stop now\nYou're tired and you want to be free\nMy love is growing stronger\nAs you become a habit to me, ooh!\nBeen loving you a little too long\nI don't wnat to stop now, oh\n\nWith you my life has been so wonderful\
EXTT16=nI can't stop now\nYou're tired and your love is growing cold\nMy love is growing stronger\nAs our affair, affair grows old\n\n*\nI've been loving you a little too long\nI don't wnat to stop now, oh\n(*Repeat]\n\nDon't make me stop now\nOh, baby, 
EXTT16=I'm down on my knees\nPlease don't make me stop now\nI love you, I love you\nI love you with all my heart\nAnd I can't stop now\nPlease, please, please, yeah\nDon't make me stop now\nI tried to tell you\nWith all my heart and soul\nThat I love you
EXTT16=, I love you\nI love you, I love you\nGood God almighty, I love you
EXTT17=
PLAYORDER=
